HIERARCHY
ROOT hip
{
	OFFSET 0.000000 0.000000 0.000000 
	CHANNELS 6 Xposition Yposition Zposition Xrotation Zrotation Yrotation
	JOINT abdomen
	{
		OFFSET 0.000000 3.402643 0.000000 
		CHANNELS 3 Xrotation Zrotation Yrotation
		JOINT chest
		{
			OFFSET 0.000000 8.438565 -0.680529 
			CHANNELS 3 Xrotation Zrotation Yrotation
			JOINT neck
			{
				OFFSET 0.000000 10.207942 -0.272212 
				CHANNELS 3 Xrotation Zrotation Yrotation
				JOINT head
				{
					OFFSET 0.000000 3.130431 0.000000 
					CHANNELS 3 Xrotation Zrotation Yrotation
					End Site
					{
						OFFSET 0.000000 3.130435 0.000000 
					}
				}
			}
			JOINT lCollar
			{
				OFFSET 3.470700 6.669187 -0.816635 
				CHANNELS 3 Yrotation Zrotation Xrotation
				JOINT lShldr
				{
					OFFSET 3.198488 0.000000 0.000000 
					CHANNELS 3 Zrotation Yrotation Xrotation
					JOINT lForeArm
					{
						OFFSET 10.139888 0.000000 0.000000 
						CHANNELS 3 Yrotation Zrotation Xrotation
						JOINT lHand
						{
							OFFSET 8.370511 0.000000 0.000000 
							CHANNELS 3 Zrotation Yrotation Xrotation
							End Site
							{
								OFFSET 4.083176 0.000000 0.000000 
							}
						}
					}
				}
			}
			JOINT rCollar
			{
				OFFSET -3.470700 6.669187 -0.816635 
				CHANNELS 3 Yrotation Zrotation Xrotation
				JOINT rShldr
				{
					OFFSET -3.198488 0.000000 0.000000 
					CHANNELS 3 Zrotation Yrotation Xrotation
					JOINT rForeArm
					{
						OFFSET -10.139888 0.000000 0.000000 
						CHANNELS 3 Yrotation Zrotation Xrotation
						JOINT rHand
						{
							OFFSET -8.370511 0.000000 0.000000 
							CHANNELS 3 Zrotation Yrotation Xrotation
							End Site
							{
								OFFSET -4.083176 0.000000 0.000000 
							}
						}
					}
				}
			}
		}
	}
	JOINT lThigh
	{
		OFFSET 5.308129 -1.633274 1.361059 
		CHANNELS 3 Xrotation Zrotation Yrotation
		JOINT lShin
		{
			OFFSET -2.041588 -20.007561 0.000000 
			CHANNELS 3 Xrotation Zrotation Yrotation
			JOINT lFoot
			{
				OFFSET 0.000000 -19.190928 -1.224953 
				CHANNELS 3 Xrotation Yrotation Zrotation
				End Site
				{
					OFFSET 0.000000 -2.449906 4.627600 
				}
			}
		}
	}
	JOINT rThigh
	{
		OFFSET -5.308129 -1.633274 1.361059 
		CHANNELS 3 Xrotation Zrotation Yrotation
		JOINT rShin
		{
			OFFSET 2.041588 -20.007561 0.000000 
			CHANNELS 3 Xrotation Zrotation Yrotation
			JOINT rFoot
			{
				OFFSET 0.000000 -19.190928 -1.224953 
				CHANNELS 3 Xrotation Yrotation Zrotation
				End Site
				{
					OFFSET 0.000000 -2.449906 4.627600 
				}
			}
		}
	}
}
MOTION
Frames: 16
Frame Time: 0.011111
41.726837 54.098099 -74.612465 11.988246 5.835443 -5.340943 16.069426 1.556574 0.503686 -28.459476 0.421573 0.160091 -14.070068 -4.074355 1.645892 24.491821 7.379604 3.422226 -8.555320 -1.799056 -0.578414 -74.303024 -18.851379 -16.180660 -36.228340 3.300010 3.117513 8.524705 12.647240 -83.606819 11.262407 1.069142 -1.081854 71.088585 10.015557 20.109776 38.041740 -4.026290 3.725011 -8.534408 -12.637552 72.367043 -8.480344 -2.264004 1.032784 26.722094 -5.530899 -4.422715 -16.277456 20.308069 1.702525 -14.595684 -0.781823 13.802173 24.290115 5.608853 4.094017 -43.770714 -25.757385 -17.951004 
41.665131 54.042358 -74.447914 11.975639 5.911127 -5.515363 15.958075 1.542205 0.731537 -28.371502 0.453874 0.227611 -13.902303 -3.994775 1.608457 24.255730 7.204459 3.346155 -8.555320 -1.799056 -0.578414 -74.229767 -19.097160 -17.275938 -36.058350 3.224881 3.059435 8.524705 12.647240 -85.091202 11.262407 1.069142 -1.081854 71.124664 9.982925 19.855116 37.981274 -4.000653 3.704923 -8.534408 -12.637552 72.064308 -8.653409 -2.195485 0.774783 27.427929 -5.478060 -4.532449 -17.756830 19.424379 2.073591 -14.542969 -0.675639 12.470798 24.703541 5.594115 4.147396 -44.183876 -26.222130 -18.449366 
41.591812 53.997906 -74.275406 11.794456 6.246126 -5.600769 16.073521 1.246266 0.630058 -28.419937 0.620362 0.228867 -13.872118 -3.981632 1.622229 24.277168 7.018596 3.341357 -8.555320 -1.799056 -0.578414 -74.281044 -19.244070 -18.129196 -36.088276 3.238842 3.073427 8.524705 12.647240 -86.224014 11.262407 1.069142 -1.081854 70.965416 9.711864 20.945908 38.222103 -4.088116 3.783312 -8.534408 -12.637552 73.070168 -8.291352 -2.470201 0.656914 27.526995 -5.482951 -4.532609 -17.744864 19.278244 2.064667 -14.579643 -0.888425 11.312921 25.351223 5.552225 4.245336 -43.756161 -26.653147 -18.346468 
41.514183 53.966053 -74.091942 11.517995 6.488146 -5.535954 16.378256 1.117451 0.427964 -28.556581 0.657414 0.176620 -14.107108 -4.075368 1.720768 24.537231 7.021344 3.497253 -8.555320 -1.799056 -0.578414 -74.287025 -19.264841 -18.259844 -36.208164 3.285491 3.104299 8.524705 12.647240 -86.311905 11.262407 1.069142 -1.081854 70.858406 9.471244 21.894968 38.463528 -4.182427 3.869263 -8.534408 -12.637552 74.124863 -7.865411 -2.674232 0.706120 27.787678 -5.468127 -4.582019 -17.529512 19.111244 1.959856 -14.440784 -1.094158 10.322455 25.842331 5.544528 4.298129 -43.098171 -27.206209 -18.095592 
41.434895 53.911648 -73.913139 11.374100 6.527587 -5.472077 16.493427 1.061672 0.501338 -28.713057 0.561962 0.209351 -14.157052 -4.080735 1.697184 24.666775 7.095255 3.457361 -8.555320 -1.799056 -0.578414 -74.204903 -19.073360 -17.577248 -36.298233 3.326554 3.136790 8.524705 12.647240 -85.403702 11.262407 1.069142 -1.081854 71.104080 9.370923 21.197218 38.433380 -4.169506 3.854149 -8.534408 -12.637552 73.978371 -7.563860 -2.634730 0.794425 27.956398 -5.473030 -4.588341 -17.339697 18.803976 1.811303 -14.357918 -1.055953 9.661907 26.365034 5.525814 4.350338 -43.411388 -27.251101 -18.334509 
41.354942 53.844635 -73.736313 11.334290 6.554477 -5.530152 16.367792 0.846887 0.804023 -28.732700 0.508833 0.309854 -14.021896 -3.981180 1.536993 24.687931 7.078949 3.205290 -8.555320 -1.799056 -0.578414 -74.197411 -18.844339 -16.331684 -36.337936 3.339784 3.152322 8.524705 12.647240 -83.636124 11.262407 1.069142 -1.081854 71.408836 9.412077 19.802374 38.242477 -4.101910 3.798039 -8.534408 -12.637552 73.138535 -7.445213 -2.615417 0.812528 28.211937 -5.429350 -4.630196 -17.375090 18.682690 1.815304 -14.342253 -1.005850 8.976635 26.761095 5.482691 4.415725 -42.190887 -28.525723 -17.996557 
41.278309 53.770985 -73.555832 11.186635 6.490551 -5.546691 16.393438 0.806250 0.954162 -28.732779 0.471951 0.350980 -13.894026 -3.854797 1.442215 24.498962 6.918269 3.020440 -8.555320 -1.799056 -0.578414 -74.326271 -18.775871 -15.969754 -36.347698 3.339156 3.153178 8.524705 12.647240 -82.483772 11.262407 1.069142 -1.081854 71.618164 9.583682 18.359781 37.920822 -3.974960 3.684893 -8.534408 -12.637552 71.927597 -7.374672 -2.555556 0.766879 28.638252 -5.433961 -4.689160 -17.707151 18.908089 1.985953 -14.072902 -0.987396 8.193774 27.048859 5.486842 4.461440 -41.274094 -28.474144 -17.314135 
41.203003 53.669144 -73.383659 11.068101 6.162309 -5.362957 16.546883 1.185555 0.866564 -28.849985 0.469364 0.291514 -13.943851 -3.943370 1.489257 24.413298 6.941165 3.078087 -8.555320 -1.799056 -0.578414 -74.606331 -18.731712 -16.402843 -36.478123 3.400467 3.196960 8.524705 12.647240 -82.239639 11.262407 1.069142 -1.081854 71.551872 9.620189 17.669609 37.710510 -3.899155 3.611883 -8.534408 -12.637552 71.195175 -7.459610 -2.226427 0.539662 29.111353 -5.389623 -4.769998 -19.533590 19.123032 2.697099 -13.648684 -0.771727 7.458026 27.209055 5.481336 4.484777 -41.804657 -26.755072 -16.993484 
41.116413 53.554352 -73.214798 11.073023 5.608782 -5.172478 16.614592 1.766312 0.854341 -28.869423 0.514335 0.220336 -14.204618 -4.228747 1.548192 24.544792 7.220199 3.122155 -8.555320 -1.799056 -0.578414 -74.908607 -18.889305 -17.277643 -36.407848 3.366231 3.171710 8.524705 12.647240 -82.268929 11.262407 1.069142 -1.081854 71.329826 9.794856 16.849936 37.429543 -3.790198 3.522798 -8.534408 -12.637552 70.296730 -7.702311 -1.610982 0.217473 29.531485 -5.369988 -4.812513 -22.549206 18.772615 3.781739 -13.171242 -0.283125 6.916876 27.233702 5.453771 4.490137 -41.210819 -26.853203 -16.626942 
41.011578 53.469090 -73.029350 11.018115 5.060973 -5.093690 16.687374 2.176574 1.009807 -28.762135 0.455416 0.224512 -14.386957 -4.348872 1.467961 24.452852 7.470743 2.956174 -8.555320 -1.799056 -0.578414 -74.984596 -19.169016 -18.217493 -36.247860 3.298769 3.119211 8.524705 12.647240 -82.708389 11.262407 1.069142 -1.081854 71.363991 10.479457 14.671020 36.568623 -3.449021 3.236243 -8.534408 -12.637552 68.480331 -7.878172 -0.956981 -0.083891 29.812187 -5.351282 -4.842136 -25.022963 18.597071 4.720996 -12.487560 0.292864 6.781477 27.071609 5.471642 4.460683 -39.866570 -28.081533 -16.193634 
40.898781 53.403404 -72.829300 10.876383 4.595194 -5.074169 16.793789 2.331914 1.247024 -28.723322 0.350644 0.279394 -14.526837 -4.300567 1.339689 24.453993 7.658473 2.744558 -8.555320 -1.799056 -0.578414 -74.911507 -19.196869 -17.817123 -36.328182 3.340412 3.151467 8.524705 12.647240 -82.200577 11.262407 1.069142 -1.081854 71.530334 11.041238 12.760740 35.759777 -3.118021 2.972372 -8.534408 -12.637552 66.937355 -7.972189 -0.419996 -0.480558 29.892754 -5.342084 -4.857379 -27.315414 18.739450 5.767351 -11.607049 0.809415 6.993625 26.726688 5.506525 4.417437 -39.713863 -27.702860 -15.954431 
40.788639 53.339046 -72.626923 10.825068 4.227694 -4.998248 16.696163 2.404325 1.339050 -28.703665 0.400357 0.296390 -14.598980 -4.325475 1.242764 24.541361 7.771447 2.563929 -8.555320 -1.799056 -0.578414 -74.920204 -19.148735 -17.218206 -36.398090 3.366864 3.170849 8.524705 12.647240 -81.536507 11.262407 1.069142 -1.081854 71.547714 11.004861 12.332121 35.570198 -3.035021 2.908236 -8.534408 -12.637552 66.615097 -8.168716 -0.010193 -0.860128 29.793661 -5.342968 -4.838365 -29.176277 19.170855 6.733943 -10.826373 1.258625 7.285509 26.193890 5.534757 4.327616 -40.046650 -27.138229 -15.951305 
40.677837 53.305870 -72.442146 10.981000 3.798375 -4.754222 16.446095 2.579672 1.313477 -28.625334 0.486697 0.272823 -14.575891 -4.445549 1.130234 24.273090 7.900308 2.302201 -8.555320 -1.799056 -0.578414 -74.973160 -19.286057 -17.140404 -36.387997 3.359635 3.164205 8.524705 12.647240 -81.731827 11.262407 1.069142 -1.081854 71.460930 10.718241 12.999635 35.859486 -3.159037 3.005607 -8.534408 -12.637552 67.337746 -8.672864 0.468068 -1.445614 29.483526 -5.361568 -4.796410 -30.469164 19.811581 7.573504 -10.262769 1.806955 7.619243 25.623560 5.542072 4.258043 -40.435719 -27.181814 -16.221581 
40.559731 53.290607 -72.268303 11.234332 3.325632 -4.506790 16.184105 2.748361 1.400970 -28.605867 0.457856 0.284267 -14.681401 -4.588762 1.007813 24.169060 8.202881 2.040887 -8.555320 -1.799056 -0.578414 -74.890358 -19.421318 -17.303640 -36.247860 3.298769 3.119211 8.524705 12.647240 -82.386116 11.262407 1.069142 -1.081854 71.472626 10.521232 13.858830 36.138618 -3.266748 3.091426 -8.534408 -12.637552 68.050644 -9.382173 1.024853 -2.248319 29.043856 -5.381108 -4.742450 -31.835642 19.879816 8.252646 -9.822701 2.421626 7.934566 25.067921 5.570761 4.204285 -40.440113 -27.710842 -16.457808 
40.439304 53.263077 -72.087166 11.441264 3.050073 -4.235039 15.878008 2.620917 1.389087 -28.635281 0.409755 0.296353 -14.804365 -4.644546 0.874338 24.426790 8.446528 1.815137 -8.555320 -1.799056 -0.578414 -74.712387 -19.491732 -18.002235 -35.928677 3.170095 3.012536 8.524705 12.647240 -83.597054 11.262407 1.069142 -1.081854 71.712967 10.400152 14.295824 36.208828 -3.301250 3.116378 -8.534408 -12.637552 68.245949 -9.993451 1.337036 -3.047605 28.512577 -5.410960 -4.682116 -33.101540 19.528654 8.760629 -9.457687 2.829189 8.310335 24.591974 5.599066 4.148427 -40.679382 -28.257730 -16.834017 
40.320869 53.227242 -71.903381 11.435083 2.769026 -3.883754 15.702728 2.541083 1.230519 -28.586460 0.407480 0.257692 -14.553257 -4.740128 0.810415 24.243343 8.629534 1.690882 -8.555320 -1.799056 -0.578414 -74.555069 -19.555578 -18.643106 -35.639664 3.054224 2.920638 8.524705 12.647240 -84.778702 11.262407 1.069142 -1.081854 71.892792 10.147309 15.104775 36.438496 -3.395757 3.198027 -8.534408 -12.637552 68.665871 -10.372220 1.629609 -3.912225 27.892498 -5.434910 -4.603480 -33.908222 19.343935 9.073054 -8.922344 3.260006 8.745219 24.257029 5.619857 4.112076 -41.291046 -28.734028 -17.437376 
